<svg width="70" height="59" viewBox="0 0 70 59" fill="none" xmlns="http://www.w3.org/2000/svg">
<g clip-path="url(#clip0)">
<path d="M29.2914 30.3051C30.0805 38.2108 33.4374 54.2474 40.5524 55.1479C47.6675 56.0484 55.0453 47.3228 57.8448 42.8474" stroke="black" stroke-width="0.3"/>
<path d="M42.3258 43.1105C39.9703 45.466 36.5156 45.76 34.6057 43.8501C34.3731 43.6175 34.1123 43.2285 33.8333 42.7139C33.5557 42.2019 33.2654 41.5755 32.9713 40.8764C32.3831 39.4782 31.7836 37.7975 31.2453 36.1763C30.7072 34.5555 30.2309 32.9965 29.8892 31.8424C29.7183 31.2655 29.5811 30.7899 29.4866 30.4586C29.4579 30.3576 29.433 30.2701 29.4124 30.1971C29.4854 30.2177 29.5729 30.2426 29.6739 30.2713C30.0052 30.3658 30.4808 30.503 31.0577 30.6739C32.2118 31.0156 33.7708 31.4919 35.3916 32.03C37.0128 32.5683 38.6935 33.1678 40.0917 33.756C40.7908 34.0501 41.4172 34.3405 41.9292 34.618C42.4438 34.897 42.8328 35.1578 43.0654 35.3904C44.9753 37.3003 44.6813 40.755 42.3258 43.1105Z" fill="#EDB72B" stroke="black" stroke-width="0.3"/>
<path d="M16.5699 17.3481C18.9254 14.9926 22.3801 14.6986 24.2901 16.6086C24.5226 16.8411 24.7834 17.2302 25.0624 17.7448C25.34 18.2568 25.6304 18.8831 25.9245 19.5823C26.5126 20.9804 27.1121 22.6611 27.6504 24.2823C28.1886 25.9031 28.6648 27.4621 29.0066 28.6162C29.1774 29.1931 29.3146 29.6687 29.4091 30C29.4379 30.101 29.4627 30.1885 29.4833 30.2615C29.4104 30.2409 29.3228 30.2161 29.2219 30.1873C28.8906 30.0928 28.415 29.9556 27.838 29.7847C26.684 29.443 25.1249 28.9667 23.5042 28.4286C21.8829 27.8903 20.2022 27.2908 18.8041 26.7027C18.105 26.4086 17.4786 26.1182 16.9666 25.8406C16.452 25.5616 16.063 25.3008 15.8304 25.0682C13.9205 23.1583 14.2144 19.7036 16.5699 17.3481Z" fill="#EDB72B" stroke="black" stroke-width="0.3"/>
<path d="M42.3833 17.3419C44.7389 19.6974 45.0328 23.1521 43.1229 25.062C42.8903 25.2946 42.5013 25.5554 41.9867 25.8344C41.4747 26.112 40.8483 26.4024 40.1492 26.6965C38.7511 27.2846 37.0704 27.8841 35.4491 28.4224C33.8284 28.9605 32.2693 29.4368 31.1153 29.7786C30.5383 29.9494 30.0627 30.0866 29.7314 30.1811C29.6305 30.2099 29.5429 30.2347 29.47 30.2553C29.4906 30.1824 29.5154 30.0948 29.5442 29.9939C29.6386 29.6626 29.7759 29.187 29.9467 28.61C30.2885 27.456 30.7647 25.8969 31.3029 24.2761C31.8412 22.6549 32.4406 20.9742 33.0288 19.5761C33.3229 18.8769 33.6133 18.2506 33.8909 17.7386C34.1699 17.224 34.4307 16.8349 34.6632 16.6024C36.5732 14.6924 40.0278 14.9864 42.3833 17.3419Z" fill="#EDB72B" stroke="black" stroke-width="0.3"/>
<path d="M16.5698 43.1549C14.2143 40.7994 13.9203 37.3447 15.8302 35.4348C16.0628 35.2022 16.4518 34.9414 16.9664 34.6624C17.4784 34.3848 18.1048 34.0945 18.8039 33.8004C20.2021 33.2122 21.8828 32.6127 23.504 32.0744C25.1248 31.5363 26.6838 31.06 27.8379 30.7183C28.4148 30.5474 28.8904 30.4102 29.2217 30.3157C29.3227 30.287 29.4102 30.2621 29.4831 30.2415C29.4626 30.3145 29.4377 30.402 29.4089 30.503C29.3145 30.8343 29.1773 31.3099 29.0064 31.8868C28.6647 33.0409 28.1884 34.5999 27.6503 36.2207C27.112 37.8419 26.5125 39.5226 25.9243 40.9208C25.6302 41.6199 25.3398 42.2463 25.0623 42.7583C24.7833 43.2729 24.5225 43.6619 24.2899 43.8945C22.38 45.8044 18.9253 45.5104 16.5698 43.1549Z" fill="#8E3AE2" stroke="black" stroke-width="0.3"/>
<circle cx="19.2524" cy="19.7649" r="2.78829" fill="white" stroke="black" stroke-width="0.3"/>
<circle cx="56.9339" cy="41.7641" r="2.78829" fill="black" stroke="black" stroke-width="0.3"/>
</g>
<defs>
<clipPath id="clip0">
<rect width="70" height="59" fill="white"/>
</clipPath>
</defs>
</svg>
