<svg width="70" height="70" viewBox="0 0 70 70" fill="none" xmlns="http://www.w3.org/2000/svg">
<g clip-path="url(#clip0)">
<path d="M29.3702 54.5516C29.3773 54.5516 29.3845 54.551 29.3916 54.551H29.3493C21.9224 54.5225 21.9213 47.0815 21.9213 47.0815C21.9213 47.0815 21.9207 54.5225 14.4938 54.551H14.4515C14.4587 54.551 14.4658 54.5516 14.4729 54.5516C14.4658 54.5516 14.4587 54.5521 14.4515 54.5521H14.4938C21.9207 54.5807 21.9213 62.0216 21.9213 62.0216C21.9213 62.0216 21.9218 54.5807 29.3488 54.5521H29.3911C29.3845 54.5516 29.3773 54.5516 29.3702 54.5516Z" fill="black"/>
</g>
<path d="M21.7487 48.9034C21.8702 47.6281 22.8783 44.9316 25.9392 44.3485C29.0001 43.7655 31.0738 44.272 32.3776 46.0805C33.8593 48.1357 38.4282 49.3926 41.1481 46.7019C43.3706 44.5033 45.6409 42.3286 48.7137 42.891C50.2928 43.3161 52.6866 44.0223 53.0731 46.5346C53.4375 48.9032 56.9965 50.4109 59.9557 48.3269C63.3492 45.9372 73.1053 33.0524 64.5876 28.8846" stroke="black" stroke-width="0.335457"/>
<path d="M45.1778 28.8299C45.0563 28.906 44.8875 29.0113 44.6765 29.1419C44.2097 29.4308 43.5361 29.8437 42.7095 30.3392C41.0562 31.3303 38.7912 32.6515 36.3443 33.9724C33.8968 35.2937 31.2699 36.6133 28.8921 37.6021C26.507 38.594 24.3967 39.2424 22.9726 39.2424C17.2219 39.2424 12.56 34.5806 12.56 28.8299C12.56 23.0792 17.2219 18.4174 22.9726 18.4174C24.3967 18.4174 26.507 19.0658 28.8921 20.0577C31.2699 21.0465 33.8968 22.3661 36.3443 23.6874C38.7912 25.0083 41.0562 26.3295 42.7095 27.3206C43.5361 27.8161 44.2097 28.229 44.6765 28.5179C44.8875 28.6485 45.0563 28.7538 45.1778 28.8299Z" fill="#FF4370" stroke="black" stroke-width="0.335457"/>
<path d="M64.7963 28.9554C64.6748 29.0315 64.506 29.1368 64.295 29.2674C63.8282 29.5563 63.1546 29.9692 62.328 30.4647C60.6746 31.4558 58.4097 32.7769 55.9627 34.0979C53.5153 35.4192 50.8884 36.7388 48.5106 37.7276C46.1254 38.7195 44.0151 39.3679 42.591 39.3679C36.8404 39.3679 32.1785 34.7061 32.1785 28.9554C32.1785 23.2047 36.8404 18.5429 42.591 18.5429C44.0151 18.5429 46.1254 19.1913 48.5106 20.1832C50.8884 21.172 53.5153 22.4916 55.9627 23.8129C58.4097 25.1338 60.6746 26.455 62.328 27.4461C63.1546 27.9416 63.8282 28.3544 64.295 28.6434C64.506 28.774 64.6748 28.8793 64.7963 28.9554Z" fill="#8E3AE2" stroke="black" stroke-width="0.335457"/>
<ellipse cx="40.5954" cy="28.9552" rx="6.69059" ry="6.77862" transform="rotate(-90 40.5954 28.9552)" fill="black"/>
<path d="M39.536 24.0706C41.4438 24.0706 42.9867 25.5966 42.9867 27.4743C42.9867 29.352 41.4438 30.8779 39.536 30.8779C37.6282 30.8779 36.0854 29.352 36.0854 27.4743C36.0854 25.5966 37.6282 24.0706 39.536 24.0706Z" fill="#EDB72B" stroke="black" stroke-width="0.335457"/>
<ellipse cx="21.115" cy="28.3996" rx="7.29532" ry="7.45391" transform="rotate(-90 21.115 28.3996)" fill="black"/>
<path d="M19.8169 24.1268C21.7247 24.1268 23.2676 25.6527 23.2676 27.5304C23.2676 29.4082 21.7247 30.9341 19.8169 30.9341C17.9091 30.9341 16.3663 29.4082 16.3663 27.5304C16.3663 25.6527 17.9091 24.1268 19.8169 24.1268Z" fill="white" stroke="black" stroke-width="0.335457"/>
<defs>
<clipPath id="clip0">
<rect width="14.9401" height="14.9401" fill="white" transform="translate(14.4515 47.0815)"/>
</clipPath>
</defs>
</svg>
