<svg width="70" height="72" viewBox="0 0 70 72" fill="none" xmlns="http://www.w3.org/2000/svg">
<path d="M30.8101 18.4083L30.9944 20.235L31.7618 18.5671L37.4024 6.30787L34.3239 19.4466L33.905 21.2342L35.1724 19.9059L44.488 10.1424L37.31 21.5696L36.3335 23.1244L37.9635 22.2795L49.9445 16.0698L39.4451 24.5472L38.0166 25.7006L39.8327 25.4308L53.1808 23.4477L40.4976 28.0567L38.772 28.6838L40.5773 29.0183L53.8461 31.4768L40.3536 31.7178L38.5179 31.7506L40.1168 32.6531L51.8683 39.2868L39.0287 35.1338L37.2818 34.5687L38.5009 35.9415L47.4618 46.0315L36.6663 37.9344L35.1975 36.8328L35.9049 38.5271L41.1041 50.98L33.5226 39.8163L32.4911 38.2975L32.61 40.1296L33.484 53.5959L29.9382 40.5755L29.4557 38.804L28.9733 40.5755L25.4275 53.5959L26.3015 40.1296L26.4204 38.2975L25.3889 39.8163L17.8074 50.9799L23.0066 38.5271L23.714 36.8328L22.2452 37.9344L11.4497 46.0315L20.4106 35.9415L21.6297 34.5687L19.8828 35.1338L7.04315 39.2868L18.7947 32.6531L20.3936 31.7506L18.5579 31.7178L5.06538 31.4768L18.3342 29.0183L20.1395 28.6838L18.4139 28.0567L5.73069 23.4477L19.0788 25.4308L20.8949 25.7006L19.4664 24.5472L8.96698 16.0698L20.948 22.2795L22.578 23.1244L21.6014 21.5696L14.4235 10.1424L23.7391 19.9059L25.0065 21.2342L24.5876 19.4466L21.5091 6.30786L27.1497 18.5671L27.9171 20.235L28.1014 18.4083L29.4557 4.98179L30.8101 18.4083Z" fill="#EDB72B" stroke="black"/>
<circle cx="43.2512" cy="31.3196" r="11.9054" fill="white" stroke="black"/>
<circle cx="43.2512" cy="56.1303" r="11.9054" transform="rotate(174.023 43.2512 56.1303)" fill="white" stroke="black"/>
<circle cx="56.2688" cy="44.3375" r="11.9054" transform="rotate(90 56.2688 44.3375)" fill="white" stroke="black"/>
<circle cx="31.4577" cy="44.3374" r="11.9054" transform="rotate(-95.9767 31.4577 44.3374)" fill="white" stroke="black"/>
<circle cx="52.4561" cy="35.1326" r="11.9054" transform="rotate(45 52.4561 35.1326)" fill="#8E3AE2" stroke="black"/>
<circle cx="34.9118" cy="52.6761" r="11.9054" transform="rotate(-140.977 34.9118 52.6761)" fill="#EDB72B" stroke="black"/>
<circle cx="52.4556" cy="53.5422" r="11.9054" transform="rotate(135 52.4556 53.5422)" fill="#8E3AE2" stroke="black"/>
<circle cx="34.9116" cy="35.998" r="11.9054" transform="rotate(-50.9767 34.9116 35.998)" fill="#8E3AE2" stroke="black"/>
</svg>
