<svg width="68" height="68" viewBox="0 0 68 68" fill="none" xmlns="http://www.w3.org/2000/svg">
<path d="M15.6826 21.5829L15.683 21.5829L15.6826 21.5716C15.678 21.4371 15.675 21.3026 15.6737 21.1682L15.7092 21.1733L15.7248 21.0271C16.2114 16.4642 20.0736 12.91 24.7658 12.91C29.766 12.91 33.8235 16.9461 33.8582 21.9381H34.1416C34.1763 16.9461 38.2338 12.91 43.2341 12.91C48.2558 12.91 52.3268 16.9809 52.3268 22.0027C52.3268 22.0788 52.3258 22.1547 52.324 22.2304L52.3204 22.3755H52.3265C52.2707 30.0114 47.7114 36.9161 43.1297 41.9335C40.827 44.4552 38.5238 46.4945 36.7962 47.9033C35.9325 48.6076 35.2129 49.1542 34.7096 49.5244C34.4579 49.7095 34.2603 49.8506 34.1258 49.9452C34.0784 49.9786 34.0388 50.0062 34.0075 50.0279C33.9825 50.0072 33.9519 49.9819 33.916 49.9519C33.8024 49.8571 33.6352 49.7162 33.4213 49.5322C32.9936 49.1641 32.3793 48.6234 31.6339 47.9337C30.1429 46.5542 28.1279 44.5793 26.032 42.1977C21.8361 37.43 17.3321 31.0505 16.0387 24.5659L16.0392 24.5657L16.0358 24.5539C15.7997 23.7446 15.673 22.8886 15.673 22.0027C15.673 21.862 15.6762 21.722 15.6826 21.5829Z" fill="white" stroke="black" stroke-width="0.283333"/>
<path d="M41.2447 37.6728C38.3677 29.7983 30.2211 27.3354 25.8546 28.4166L27.343 32.0505C30.0594 31.3151 36.0627 31.9278 39.3182 39.8763C42.1957 46.902 49.3476 47.5562 52.4494 46.3801L51.1594 43.2307C51.1594 43.2307 44.1217 45.5473 41.2447 37.6728Z" fill="#EDB72B" stroke="black" stroke-width="0.283333"/>
<path d="M39.5605 39.7772C36.6834 31.9027 28.5369 29.4398 24.1703 30.521L25.6587 34.1549C28.3751 33.4196 34.3784 34.0322 37.634 41.9808C40.5115 49.0064 47.6634 49.6606 50.7651 48.4845L49.4752 45.3351C49.4752 45.3351 42.4375 47.6517 39.5605 39.7772Z" fill="black" stroke="black" stroke-width="0.283333"/>
<circle cx="44.1976" cy="19.7059" r="3.39256" fill="white" stroke="black" stroke-width="0.283333"/>
</svg>
