<svg width="70" height="67" viewBox="0 0 70 67" fill="none" xmlns="http://www.w3.org/2000/svg">
<rect x="20.5102" y="27.0059" width="28.1816" height="28.1816" fill="#F8CEEE" stroke="black" stroke-width="0.291667"/>
<rect x="42.3436" y="16.1201" width="5.7446" height="9.99061" fill="black"/>
<rect x="23.5072" y="34.9988" width="7.20129" height="6.20223" fill="#EDB72B" stroke="black" stroke-width="0.291667"/>
<rect x="38.493" y="34.9984" width="7.20129" height="6.20223" fill="#8E3AE2" stroke="black" stroke-width="0.291667"/>
<rect x="31.0002" y="46.7373" width="7.20129" height="8.45012" fill="#8E3AE2" stroke="black" stroke-width="0.291667"/>
<path d="M12.7625 34.9253L34.6009 11.2153L56.4394 34.9253H12.7625Z" fill="#EDB72B" stroke="black" stroke-width="0.291667"/>
<rect x="45.8099" y="27.6266" width="2.01541" height="10.8867" rx="1.00771" transform="rotate(139.872 45.8099 27.6266)" fill="white" stroke="black" stroke-width="0.291667"/>
<rect x="20.5102" y="27.0059" width="28.1816" height="28.1816" fill="#F8CEEE" stroke="black" stroke-width="0.291667"/>
<rect x="42.3436" y="16.1201" width="5.7446" height="9.99061" fill="black"/>
<rect x="23.5072" y="34.9988" width="7.20129" height="6.20223" fill="#EDB72B" stroke="black" stroke-width="0.291667"/>
<rect x="38.493" y="34.9984" width="7.20129" height="6.20223" fill="#8E3AE2" stroke="black" stroke-width="0.291667"/>
<rect x="31.0002" y="46.7373" width="7.20129" height="8.45012" fill="#8E3AE2" stroke="black" stroke-width="0.291667"/>
<path d="M12.7625 34.9253L34.6009 11.2153L56.4394 34.9253H12.7625Z" fill="#EDB72B" stroke="black" stroke-width="0.291667"/>
<rect x="45.8099" y="27.6266" width="2.01541" height="10.8867" rx="1.00771" transform="rotate(139.872 45.8099 27.6266)" fill="white" stroke="black" stroke-width="0.291667"/>
</svg>
