<svg width="70" height="70" viewBox="0 0 70 70" fill="none" xmlns="http://www.w3.org/2000/svg">
<path d="M22.9193 23.3146C26.6612 23.3146 29.5661 25.6365 30.5508 26.7975V30.122H18.9805C15.8294 30.122 12.4158 25.5837 11.1028 23.3146H22.9193Z" fill="white" stroke="black" stroke-width="0.291667" stroke-linecap="round"/>
<circle cx="29.1519" cy="28.0637" r="3.16626" fill="black"/>
<circle cx="29.9832" cy="27.0941" r="1.44461" fill="white"/>
<path d="M44.1346 23.3146C47.8765 23.3146 50.7814 25.6365 51.7661 26.7975V30.122H40.1958C37.0447 30.122 33.6311 25.5837 32.3181 23.3146H44.1346Z" fill="white" stroke="black" stroke-width="0.291667" stroke-linecap="round"/>
<circle cx="51.1983" cy="27.0941" r="1.44461" fill="white"/>
<path d="M26.9417 34.2609C30.152 34.2609 32.0864 37.8441 32.6523 39.6357V43.3567H13.6683C16.7552 40.3248 23.7314 34.2609 26.9417 34.2609Z" fill="#EDB72B" stroke="black" stroke-width="0.291667" stroke-linecap="round"/>
<path d="M38.362 34.2609C35.1517 34.2609 33.2173 37.8441 32.6514 39.6357V43.3567H51.6354C48.5486 40.3248 41.5723 34.2609 38.362 34.2609Z" fill="#EDB72B" stroke="black" stroke-width="0.291667" stroke-linecap="round"/>
<path fill-rule="evenodd" clip-rule="evenodd" d="M32.536 51.3322C32.4716 51.3327 32.4071 51.333 32.3425 51.333C31.8275 51.333 31.3689 51.3091 30.9619 51.2639C22.3677 50.6284 15.1852 45.8372 13.556 43.3579H32.3411C32.342 43.3571 32.3425 43.3567 32.3425 43.3567H51.6354C50.0101 45.8301 42.858 50.6043 34.291 51.2581C33.8689 51.3078 33.39 51.3342 32.8489 51.3342C32.7445 51.3342 32.6402 51.3335 32.536 51.3322Z" fill="#FF4370"/>
<path d="M32.536 51.3322L32.5379 51.1864L32.5349 51.1864L32.536 51.3322ZM30.9619 51.2639L30.978 51.1189L30.9727 51.1185L30.9619 51.2639ZM13.556 43.3579V43.2121H13.2857L13.4342 43.438L13.556 43.3579ZM32.3411 43.3579V43.5037H32.3947L32.4356 43.469L32.3411 43.3579ZM32.3425 43.3567V43.2109H32.2891L32.2483 43.2454L32.3425 43.3567ZM51.6354 43.3567L51.7573 43.4368L51.9057 43.2109H51.6354V43.3567ZM34.291 51.2581L34.2799 51.1126L34.2739 51.1133L34.291 51.2581ZM32.3425 51.4788C32.4075 51.4788 32.4723 51.4785 32.5372 51.478L32.5349 51.1864C32.4708 51.1869 32.4067 51.1871 32.3425 51.1871V51.4788ZM30.9459 51.4089C31.359 51.4547 31.8231 51.4788 32.3425 51.4788V51.1871C31.8319 51.1871 31.3787 51.1634 30.978 51.119L30.9459 51.4089ZM30.9727 51.1185C26.6987 50.8024 22.7735 49.4527 19.714 47.8727C16.6483 46.2896 14.472 44.4862 13.6779 43.2778L13.4342 43.438C14.2693 44.7089 16.4988 46.5407 19.5802 48.1319C22.6678 49.7263 26.6309 51.0899 30.9512 51.4094L30.9727 51.1185ZM13.556 43.5037H32.3411V43.2121H13.556V43.5037ZM32.3425 43.3567C32.2483 43.2454 32.2483 43.2454 32.2483 43.2454C32.2483 43.2454 32.2483 43.2454 32.2483 43.2454C32.2483 43.2454 32.2483 43.2454 32.2483 43.2454C32.2483 43.2454 32.2483 43.2454 32.2483 43.2454C32.2483 43.2454 32.2483 43.2454 32.2483 43.2454C32.2483 43.2454 32.2483 43.2454 32.2483 43.2454C32.2483 43.2454 32.2483 43.2454 32.2482 43.2454C32.2482 43.2454 32.2482 43.2455 32.2481 43.2455C32.2481 43.2456 32.2479 43.2457 32.2478 43.2458C32.2475 43.246 32.2471 43.2464 32.2466 43.2468L32.4356 43.469C32.436 43.4686 32.4363 43.4684 32.4365 43.4682C32.4366 43.4681 32.4367 43.4681 32.4367 43.468C32.4367 43.468 32.4367 43.468 32.4367 43.468C32.4367 43.468 32.4367 43.468 32.4367 43.468C32.4367 43.468 32.4367 43.468 32.4367 43.468C32.4367 43.468 32.4367 43.468 32.4367 43.468C32.4367 43.468 32.4367 43.468 32.4367 43.468C32.4367 43.468 32.4367 43.468 32.4367 43.468C32.4367 43.468 32.4367 43.468 32.4367 43.468C32.4367 43.468 32.4367 43.468 32.3425 43.3567ZM51.6354 43.2109H32.3425V43.5025H51.6354V43.2109ZM34.3021 51.4035C38.6086 51.0749 42.5573 49.711 45.6333 48.1193C48.7032 46.5308 50.9241 44.7047 51.7573 43.4368L51.5135 43.2766C50.7214 44.4821 48.5535 46.2798 45.4993 47.8602C42.4512 49.4375 38.5404 50.7876 34.2799 51.1127L34.3021 51.4035ZM34.2739 51.1133C33.8585 51.1622 33.3854 51.1883 32.8489 51.1883V51.48C33.3946 51.48 33.8794 51.4534 34.308 51.4029L34.2739 51.1133ZM32.8489 51.1883C32.7451 51.1883 32.6414 51.1877 32.5379 51.1864L32.5342 51.478C32.639 51.4793 32.7439 51.48 32.8489 51.48V51.1883Z" fill="black"/>
<path d="M58.8977 26.9479L58.8505 26.9479C58.8504 26.9479 58.8503 26.9479 58.8503 26.9479C56.7812 26.9399 55.2389 26.4161 54.0869 25.6423C52.934 24.8679 52.1634 23.8372 51.6482 22.8031C51.1326 21.7683 50.8741 20.7329 50.7446 19.9549C50.6799 19.5662 50.6476 19.2428 50.6315 19.017C50.6235 18.9042 50.6194 18.8158 50.6174 18.756C50.6165 18.7262 50.616 18.7034 50.6157 18.6883L50.6155 18.6715L50.6155 18.6676L58.8977 26.9479ZM50.4696 34.1103C50.333 33.3222 50.0679 32.2902 49.5525 31.2556C49.0201 30.187 48.2194 29.1129 47.0155 28.3042C46.1746 27.7394 45.1413 27.3069 43.8729 27.0943C45.1413 26.8818 46.1746 26.4493 47.0155 25.8844C48.2194 25.0758 49.0201 24.0017 49.5525 22.9331C50.068 21.8984 50.3331 20.8662 50.4697 20.0781C50.6063 20.8662 50.8715 21.8984 51.3871 22.9331C51.9195 24.0017 52.7204 25.0758 53.9243 25.8844C54.7651 26.4492 55.7984 26.8817 57.0667 27.0943C55.7981 27.3068 54.7647 27.7393 53.9238 28.3042C52.7199 29.1129 51.9191 30.187 51.3868 31.2556C50.8714 32.2902 50.6062 33.3222 50.4696 34.1103Z" fill="#8E3AE2" stroke="black" stroke-width="0.291667"/>
</svg>
