<svg width="67" height="55" viewBox="0 0 67 55" fill="none" xmlns="http://www.w3.org/2000/svg">
<circle cx="39.5818" cy="27.4999" r="26.3938" fill="#2BEDE1" stroke="black" stroke-width="0.429167"/>
<path d="M37.407 22.4319C37.2744 22.5155 37.0976 22.6265 36.8809 22.7616C36.3592 23.0868 35.6064 23.5515 34.6826 24.1092C32.8347 25.2247 30.3035 26.7118 27.5689 28.1986C24.8336 29.6857 21.8983 31.1707 19.2417 32.2834C16.5757 33.3999 14.2215 34.1277 12.636 34.1277C6.22457 34.1277 1.02446 28.8927 1.02446 22.4319C1.02446 15.971 6.22457 10.7361 12.636 10.7361C14.2215 10.7361 16.5757 11.4638 19.2417 12.5804C21.8983 13.693 24.8336 15.178 27.5689 16.6652C30.3035 18.152 32.8347 19.6391 34.6826 20.7546C35.6064 21.3123 36.3592 21.777 36.8809 22.1022C37.0976 22.2373 37.2744 22.3483 37.407 22.4319Z" fill="#EDB72B" stroke="black" stroke-width="0.429167"/>
<path d="M60.2139 22.4319C60.0813 22.5155 59.9045 22.6265 59.6878 22.7616C59.1661 23.0868 58.4133 23.5515 57.4894 24.1092C55.6416 25.2247 53.1104 26.7118 50.3757 28.1986C47.6404 29.6857 44.7052 31.1707 42.0486 32.2834C39.3826 33.3999 37.0284 34.1277 35.4429 34.1277C29.0315 34.1277 23.8313 28.8927 23.8313 22.4319C23.8313 15.971 29.0315 10.7361 35.4429 10.7361C37.0284 10.7361 39.3826 11.4638 42.0486 12.5804C44.7052 13.693 47.6404 15.178 50.3757 16.6652C53.1104 18.152 55.6416 19.6391 57.4894 20.7546C58.4133 21.3123 59.1661 21.777 59.6878 22.1022C59.9045 22.2373 60.0813 22.3483 60.2139 22.4319Z" fill="white" stroke="black" stroke-width="0.429167"/>
<circle cx="32.9934" cy="22.4318" r="7.34897" transform="rotate(-90 32.9934 22.4318)" fill="black"/>
<circle cx="32.233" cy="20.658" r="3.84002" transform="rotate(-90 32.233 20.658)" fill="#EDB72B" stroke="black" stroke-width="0.429167"/>
<ellipse cx="10.4394" cy="22.4318" rx="7.34897" ry="7.60238" transform="rotate(-90 10.4394 22.4318)" fill="black"/>
<path d="M9.67912 16.818C11.6471 16.818 13.2657 18.524 13.2657 20.658C13.2657 22.7921 11.6471 24.4981 9.67912 24.4981C7.71113 24.4981 6.09251 22.7921 6.09251 20.658C6.09251 18.524 7.71113 16.818 9.67912 16.818Z" fill="white" stroke="black" stroke-width="0.429167"/>
<circle cx="40.0885" cy="43.7189" r="3.29437" fill="black"/>
</svg>
