<svg width="68" height="61" viewBox="0 0 68 61" fill="none" xmlns="http://www.w3.org/2000/svg">
<circle cx="39.9721" cy="28.0998" r="27.6012" fill="#8E3AE2" stroke="black" stroke-width="0.433333"/>
<path d="M38.0841 34.8908H38.079H38.0608H38.0422H38.0232H38.0039H37.9842H37.9641H37.9437H37.9229H37.9017H37.8801H37.8582H37.8359H37.8133H37.7903H37.7669H37.7432H37.7192H37.6947H37.67H37.6448H37.6194H37.5935H37.5674H37.5409H37.514H37.4868H37.4592H37.4314H37.4031H37.3746H37.3457H37.3164H37.2869H37.257H37.2268H37.1962H37.1653H37.1341H37.1026H37.0707H37.0386H37.0061H36.9733H36.9401H36.9067H36.8729H36.8388H36.8045H36.7698H36.7347H36.6994H36.6638H36.6279H36.5917H36.5551H36.5183H36.4812H36.4438H36.406H36.368H36.3297H36.2911H36.2522H36.2131H36.1736H36.1338H36.0938H36.0535H36.0129H35.972H35.9309H35.8894H35.8477H35.8057H35.7635H35.7209H35.6781H35.635H35.5917H35.5481H35.5042H35.4601H35.4157H35.371H35.3261H35.281H35.2355H35.1898H35.1439H35.0977H35.0513H35.0046H34.9577H34.9105H34.8631H34.8154H34.7675H34.7193H34.6709H34.6223H34.5734H34.5243H34.475H34.4254H34.3756H34.3256H34.2754H34.2249H34.1742H34.1232H34.0721H34.0207H33.9691H33.9173H33.8653H33.8131H33.7606H33.7079H33.6551H33.602H33.5487H33.4952H33.4415H33.3876H33.3335H33.2792H33.2246H33.1699H33.115H33.0599H33.0046H32.9492H32.8935H32.8376H32.7816H32.7253H32.6689H32.6123H32.5555H32.4985H32.4414H32.384H32.3265H32.2688H32.211H32.153H32.0948H32.0364H31.9779H31.9192H31.8603H31.8013H31.7421H31.6827H31.6232H31.5635H31.5037H31.4437H31.3836H31.3233H31.2628H31.2022H31.1415H31.0806H31.0196H30.9584H30.8971H30.8356H30.774H30.7123H30.6504H30.5884H30.5262H30.464H30.4016H30.339H30.2763H30.2136H30.1506H30.0876H30.0244H29.9611H29.8977H29.8342H29.7706H29.7068H29.6429H29.5789H29.5148H29.4506H29.3863H29.3219H29.2574H29.1927H29.128H29.0632H28.9982H28.9332H28.8681H28.8028H28.7375H28.6721H28.6066H28.541H28.4753H28.4096H28.3437H28.2778H28.2117H28.1456H28.0794H28.0132H27.9468H27.8804H27.8139H27.7474H27.6807H27.614H27.5472H27.4804H27.4135H27.3465H27.2795H27.2124H27.1452H27.078H27.0107H26.9434H26.876H26.8086H26.7411H26.6736H26.606H26.5383H26.4706H26.4029H26.3352H26.2673H26.1995H26.1316H26.0637H25.9957H25.9277H25.8597H25.7916H25.7235H25.6554H25.5873H25.5191H25.4509H25.3827H25.3144H25.2461H25.1779H25.1096H25.0412H24.9729H24.9046H24.8362H24.7678H24.6994H24.6311H24.5627H24.4943H24.4259H24.3575H24.2891H24.2207H24.1523H24.0839H24.0155H23.9471H23.8787H23.8104H23.742H23.6737H23.6053H23.537H23.4687H23.4004H23.3322H23.2639H23.1957H23.1275H23.0593H22.9912H22.9231H22.855H22.7869H22.7189H22.6509H22.583H22.5151H22.4472H22.3793H22.3115H22.2438H22.1761H22.1084H22.0408H21.9732H21.9057H21.8382H21.7708H21.7034H21.6361H21.5688H21.5016H21.4345H21.3674H21.3004H21.2334H21.1665H21.0997H21.0329H20.9663H20.8996H20.8331H20.7666H20.7002H20.6339H20.5676H20.5015H20.4354H20.3694H20.3035H20.2376H20.1719H20.1062H20.0406H19.9752H19.9098H19.8445H19.7793H19.7142H19.6492H19.5842H19.5194H19.4547H19.3901H19.3256H19.2612H19.1969H19.1328H19.0687H19.0047H18.9409H18.8772H18.8135H18.75H18.6867H18.6234H18.5603H18.4973H18.4344H18.3716H18.309H18.2465H18.1841H18.1218H18.0597H17.9978H17.9359H17.8742H17.8126H17.7512H17.6899H17.6288H17.5678H17.5069H17.4462H17.3857H17.3253H17.265H17.2049H17.145H17.0852H17.0256H16.9661H16.9068H16.8476H16.7886H16.7298H16.6711H16.6126H16.5543H16.4961H16.4382H16.3803H16.3227H16.2652H16.208H16.1509H16.0939H16.0372H15.9806H15.9242H15.868H15.812H15.7562H15.7006H15.6452H15.5899H15.5349H15.48H15.4253H15.3709H15.3166H15.2626H15.2087H15.155H15.1016H15.0484H14.9953H14.9425H14.8899H14.8375H14.7853H14.7333H14.6816H14.63H14.5787H14.5276H14.4768H14.4261H14.3757H14.3255H14.2755H14.2258H14.1763H14.127H14.078H14.0292H13.9806H13.9323H13.8842H13.8363H13.7887H13.7413H13.6942H13.6473H13.6007H13.5543H13.5082H13.4623H13.4167H13.3714H13.3262H13.2814H13.2368H13.1925H13.1484H13.1046H13.0611H13.0178H12.9748H12.932H12.8896H12.8474H12.8055H12.7638H12.7225H12.6814H12.6406H12.6H12.5598H12.5198H12.4801C5.85383 34.8908 0.479179 29.4752 0.479179 22.7911C0.479179 16.1071 5.85383 10.6915 12.4801 10.6915C14.9221 10.6915 17.7574 12.1896 20.6609 14.4934C23.5557 16.7902 26.481 19.8574 29.0975 22.9316C31.713 26.0046 34.015 29.0784 35.6633 31.3846C36.4873 32.5375 37.1477 33.4981 37.602 34.1703C37.8052 34.4711 37.9672 34.7142 38.0841 34.8908Z" fill="#EDB72B" stroke="black" stroke-width="0.433333"/>
<path d="M61.8616 34.8908H61.8578H61.8393H61.8206H61.8014H61.7818H61.7619H61.7416H61.7209H61.6999H61.6785H61.6567H61.6345H61.612H61.5891H61.5659H61.5422H61.5183H61.4939H61.4692H61.4442H61.4188H61.393H61.3669H61.3404H61.3136H61.2865H61.259H61.2311H61.2029H61.1744H61.1455H61.1163H61.0867H61.0568H61.0266H60.9961H60.9652H60.9339H60.9024H60.8705H60.8383H60.8058H60.7729H60.7397H60.7062H60.6724H60.6383H60.6038H60.569H60.534H60.4986H60.4629H60.4269H60.3905H60.3539H60.317H60.2797H60.2422H60.2044H60.1662H60.1278H60.0891H60.05H60.0107H59.9711H59.9312H59.891H59.8505H59.8097H59.7687H59.7274H59.6857H59.6438H59.6017H59.5592H59.5165H59.4735H59.4302H59.3867H59.3428H59.2987H59.2544H59.2098H59.1649H59.1197H59.0743H59.0286H58.9827H58.9365H58.8901H58.8434H58.7964H58.7492H58.7017H58.654H58.6061H58.5579H58.5094H58.4607H58.4118H58.3626H58.3132H58.2636H58.2137H58.1636H58.1132H58.0627H58.0119H57.9608H57.9095H57.8581H57.8063H57.7544H57.7022H57.6498H57.5972H57.5444H57.4914H57.4381H57.3847H57.331H57.2771H57.223H57.1687H57.1142H57.0595H57.0046H56.9495H56.8942H56.8386H56.7829H56.727H56.6709H56.6146H56.5581H56.5015H56.4446H56.3875H56.3303H56.2729H56.2153H56.1575H56.0995H56.0414H55.9831H55.9246H55.8659H55.807H55.748H55.6888H55.6295H55.57H55.5103H55.4504H55.3904H55.3302H55.2699H55.2094H55.1487H55.0879H55.027H54.9658H54.9046H54.8432H54.7816H54.7199H54.658H54.596H54.5339H54.4716H54.4092H54.3466H54.2839H54.2211H54.1581H54.095H54.0318H53.9684H53.9049H53.8413H53.7776H53.7137H53.6497H53.5856H53.5214H53.457H53.3925H53.328H53.2633H53.1984H53.1335H53.0685H53.0034H52.9381H52.8728H52.8073H52.7418H52.6761H52.6103H52.5445H52.4785H52.4125H52.3463H52.2801H52.2138H52.1474H52.0809H52.0143H51.9476H51.8809H51.814H51.7471H51.6801H51.613H51.5459H51.4786H51.4113H51.3439H51.2765H51.209H51.1414H51.0737H51.006H50.9382H50.8704H50.8025H50.7345H50.6665H50.5984H50.5303H50.4621H50.3939H50.3256H50.2572H50.1889H50.1204H50.0519H49.9834H49.9149H49.8463H49.7776H49.7089H49.6402H49.5715H49.5027H49.4339H49.365H49.2961H49.2272H49.1583H49.0893H49.0203H48.9513H48.8823H48.8133H48.7442H48.6751H48.606H48.5369H48.4678H48.3987H48.3295H48.2604H48.1912H48.1221H48.0529H47.9838H47.9146H47.8454H47.7763H47.7071H47.638H47.5688H47.4997H47.4306H47.3615H47.2924H47.2233H47.1542H47.0851H47.0161H46.9471H46.8781H46.8091H46.7401H46.6712H46.6023H46.5334H46.4646H46.3958H46.327H46.2583H46.1896H46.1209H46.0523H45.9837H45.9151H45.8466H45.7781H45.7097H45.6413H45.573H45.5047H45.4365H45.3683H45.3002H45.2321H45.1641H45.0962H45.0283H44.9605H44.8927H44.825H44.7574H44.6898H44.6223H44.5549H44.4875H44.4202H44.353H44.2859H44.2188H44.1518H44.0849H44.0181H43.9514H43.8847H43.8182H43.7517H43.6853H43.619H43.5528H43.4867H43.4206H43.3547H43.2889H43.2231H43.1575H43.092H43.0266H42.9612H42.896H42.8309H42.7659H42.701H42.6362H42.5716H42.507H42.4426H42.3782H42.314H42.25H42.186H42.1222H42.0585H41.9949H41.9314H41.8681H41.8049H41.7418H41.6789H41.6161H41.5534H41.4909H41.4285H41.3662H41.3041H41.2422H41.1803H41.1187H41.0571H40.9958H40.9345H40.8734H40.8125H40.7518H40.6911H40.6307H40.5704H40.5103H40.4503H40.3905H40.3308H40.2713H40.212H40.1529H40.0939H40.0351H39.9765H39.918H39.8597H39.8016H39.7437H39.686H39.6284H39.571H39.5138H39.4568H39.4H39.3434H39.2869H39.2307H39.1746H39.1188H39.0631H39.0077H38.9524H38.8973H38.8425H38.7878H38.7333H38.6791H38.6251H38.5712H38.5176H38.4642H38.411H38.358H38.3052H38.2527H38.2004H38.1483H38.0964H38.0447H37.9933H37.9421H37.8911H37.8403H37.7898H37.7395H37.6895H37.6396H37.59H37.5407H37.4916H37.4427H37.3941H37.3457H37.2976H37.2497H37.202H37.1546H37.1075H37.0606H37.014H36.9676H36.9215H36.8756H36.83H36.7846H36.7395H36.6947H36.6502H36.6059H36.5618H36.5181H36.4746H36.4314H36.3885H36.3458H36.3034H36.2613H36.2195H36.1779H36.1367H36.0957H36.055H36.0146H35.9745C29.2709 34.8908 23.8378 29.473 23.8378 22.7912C23.8378 16.1093 29.2709 10.6915 35.9745 10.6915C38.3824 10.6915 41.2186 12.1893 44.1437 14.4939C47.0595 16.7911 50.0253 19.8586 52.6866 22.933C55.3468 26.0061 57.6976 29.0802 59.3837 31.3865C60.2266 32.5394 60.903 33.5001 61.3687 34.1724C61.5762 34.472 61.7418 34.7143 61.8616 34.8908Z" fill="white" stroke="black" stroke-width="0.433333"/>
<ellipse cx="33.6016" cy="22.5787" rx="7.43225" ry="7.85695" transform="rotate(-90 33.6016 22.5787)" fill="black"/>
<path d="M32.7522 17.062C34.8505 17.062 36.5702 18.8559 36.5702 21.0924C36.5702 23.3289 34.8505 25.1227 32.7522 25.1227C30.6539 25.1227 28.9342 23.3289 28.9342 21.0924C28.9342 18.8559 30.6539 17.062 32.7522 17.062Z" fill="#EDB72B" stroke="black" stroke-width="0.433333"/>
<ellipse cx="10.0308" cy="22.5787" rx="7.43225" ry="8.0693" transform="rotate(-90 10.0308 22.5787)" fill="black"/>
<path d="M9.18131 17.062C11.1517 17.062 12.7869 18.8444 12.7869 21.0924C12.7869 23.3403 11.1517 25.1227 9.18131 25.1227C7.21088 25.1227 5.57568 23.3403 5.57568 21.0924C5.57568 18.8444 7.21088 17.062 9.18131 17.062Z" fill="white" stroke="black" stroke-width="0.433333"/>
<path d="M65.8627 59.8818C65.8627 59.8818 44.7693 30.2236 36.1337 25.2688L31.6744 25.9058L49.9365 59.8818H65.8627Z" fill="#2BEDE1" stroke="black" stroke-width="0.433333" stroke-linecap="round"/>
<path d="M41.6548 59.8818C41.6548 59.8818 20.5613 30.2236 11.9258 25.2688L7.46643 25.9058L25.7285 59.8818H41.6548Z" fill="#2BEDE1" stroke="black" stroke-width="0.433333" stroke-linecap="round"/>
</svg>
