<svg width="70" height="70" viewBox="0 0 70 70" fill="none" xmlns="http://www.w3.org/2000/svg">
<path d="M22.6775 11.4086L23.86 14.6043L23.8823 14.6645L23.9425 14.6868L27.1382 15.8693L23.9425 17.0518L23.8823 17.0741L23.86 17.1343L22.6775 20.3299L21.495 17.1343L21.4727 17.0741L21.4125 17.0518L18.2168 15.8693L21.4125 14.6868L21.4727 14.6645L21.495 14.6043L22.6775 11.4086Z" fill="#EDB72B" stroke="black" stroke-width="0.279294"/>
<path d="M30.5102 18.6528C30.5102 20.7323 26.1868 26.3975 24.0232 26.3975H17.8144V45.8789C19.0374 46.1911 21.8575 45.8789 24.0232 45.8789H26.1868C30.0751 47.0341 38.6795 48.6513 41.9908 45.8789L38.7663 24.3124C37.98 23.7166 36.7023 21.989 37.8817 19.8443C39.0612 17.6996 38.0783 13.6018 37.8817 11.3181C37.7285 9.53855 34.9921 8.22729 32.8691 8.22729C30.746 8.22729 30.4119 9.61736 30.5102 10.3124V18.6528Z" stroke="black" stroke-width="0.279294"/>
<rect x="51.2993" y="24.2067" width="6.66794" height="16.1162" rx="3.33397" transform="rotate(90 51.2993 24.2067)" fill="white" stroke="black" stroke-width="0.279294"/>
<rect x="52.1331" y="40.8801" width="6.39005" height="15.0046" rx="3.19502" transform="rotate(90 52.1331 40.8801)" fill="#8E3AE2" stroke="black" stroke-width="0.279294"/>
<rect x="53.2446" y="29.7645" width="6.39005" height="19.7287" rx="3.19502" transform="rotate(90 53.2446 29.7645)" fill="#8E3AE2" stroke="black" stroke-width="0.279294"/>
<rect x="53.2446" y="35.3222" width="6.39005" height="18.0614" rx="3.19502" transform="rotate(90 53.2446 35.3222)" fill="white" stroke="black" stroke-width="0.279294"/>
<path d="M27.5407 44.3529C27.8827 35.4605 20.8713 29.7638 16.1472 29.069V33.2374C19.1114 33.6079 24.7618 36.6249 24.7618 45.7424C24.7618 53.8012 31.5238 57.3211 35.0437 57.4137V53.8012C35.0437 53.8012 27.1987 53.2454 27.5407 44.3529Z" fill="#EDB72B" stroke="black" stroke-width="0.279294"/>
<path d="M25.0397 45.7423C25.3817 36.8499 18.3703 31.1532 13.6462 30.4584V34.6268C16.6104 34.9973 22.2608 38.0143 22.2608 47.1318C22.2608 55.1906 29.0228 58.7105 32.5427 58.8031V55.1906C32.5427 55.1906 24.6977 54.6348 25.0397 45.7423Z" fill="black" stroke="black" stroke-width="0.279294"/>
</svg>
